<?xml version="1.0" encoding="UTF-8"?>
<svg version="1.1" viewBox="0 0 2048 2048" width="512" height="512" xmlns="http://www.w3.org/2000/svg">
<path transform="translate(1187)" d="m0 0h8v255l815 1 10 2 11 6 8 8 6 10 3 7v1469l-4 10-8 11-10 8-12 4-13 1h-807l1 2v253l-1 1h-7l-15-4-328-61-221-41-52-10-124-23-172-32-107-20-167-31-1-1v-1603l52-10 182-34 365-68 559-104 26-5z" fill="#33855F"/>
<path transform="translate(1279,341)" d="m0 0h659l24 1 1 2v1361l-1 1-762 1-5-1v-83l1-1 46-1h207l1-25v-145l-255-1v-84l55-1h193l7 1v-171h-247l-8-1v-83l1-1 41-1h213v-170l-255-1v-83l1-1 188-1h66v-170h-254l-1-1v-83l1-1 119-1h25l110 1v-171h-248l-7-1v-84z" fill="#FCFCFC"/>
<path transform="translate(818,712)" d="m0 0h5v3l-6 12-13 23-12 22-9 16-15 27-13 23-13 24-13 23-16 29-25 45-13 23-13 24-14 25-10 17-6 12-3 5 1 5 165 297 12 22 13 23 3 5v3h-15l-93-7-32-2-9-1-5-5-12-22-13-23-13-24-50-90-14-25-12-21-2-1-2 6-14 26-12 21-13 24-9 16-15 27-13 23-13 24-13 23-4 5-30-2-48-4-59-4-2-1 1-4 12-21 16-29 135-243 8-14 2-4-1-6-14-24-14-26-9-16-80-144-12-21-12-22-12-21-13-24-7-12v-3l120-9 18-1 5 5 16 29 15 27 13 23 13 24 13 23 16 29 13 23 6 11 3-3 12-22 10-17 6-12 12-21 12-22 10-18 14-25 13-24 13-23 12-21 3-2 34-3 86-6z" fill="#FCFCFC"/>
<path transform="translate(1537,682)" d="m0 0h307l33 1v170l-1 1h-340v-171z" fill="#33855F"/>
<path transform="translate(1556,938)" d="m0 0h319l2 1v170l-1 1h-339l-1-1v-170z" fill="#33855F"/>
<path transform="translate(1555,1450)" d="m0 0h320l2 1v170l-1 1h-339l-1-1v-170z" fill="#33855F"/>
<path transform="translate(1555,1194)" d="m0 0h321l1 1v170l-1 1h-339l-1-1v-170z" fill="#33855F"/>
<path transform="translate(1555,426)" d="m0 0h290l32 1v170l-1 1h-334l-6-2v-169z" fill="#33855F"/>
<path transform="translate(1187)" d="m0 0h8v255h-1l-1-234-35 7-24 4-9 2-12 2-17 3-16 3-18 4-10 1-14 3-10 2-17 3-9 2-9 1-3 1-3-1v2l-14 2-9 2-22 4-13 2-7 2-18 3-9 2-6 1-3-1-1 2-7 1-12 2-9 2-18 3-2 1-9 1-6 2-6-1-1 2-11 2-2-1v2l-9 1-17 3-3 1-9 1-9 2-15 3-12 2-9 2-8 1-7 2-8 1-3 2v-2l-9 3-9 1v1l-8 1-7 1-9 3h-8l-6 2-7 1-8 1-6 2-7 2h-3-5l-4 1-5 1-3-1 1 3h-10l-3 1h-2l-1 2-3-1-3 2h-5-3l-2-1-1 2-4-1v2h-3v2l-7 1-4 1-5 2-8 1-5 1-1-3-2 3h-2v2l-8 1-4 6-9 3-3-3-2 5-9 2v2h-2l-1 2-5-3-10 4h-2l-2 4-12-1-10 2-4-2v-2h-5l-2-2-6 5-6-1-4 2-1-4 4-3 3-1 12-1 3-2-11 1-21 4-16 3-22 4-25 5-8 2-13 2-15 3h-5l-1 2-4-1-1 2-11 1-8 3h-8l-1 2-5-1v2l-12 2-4 1h-4v2h-7l-4 1-2 2-3-1-12 3-7 3-5-1-7 1v2h-3l5 2 1 2 1-1 3-2 6-3 3 1-1 3-7 1 1 4 2 1-6 3-2 4-5 1h-6l-4 4-9 2-5 1-2 6-5-1-5 1 1 4-2 9h-2l-3-7-4-1 1 5h3v5l-3 2-1 4h-2l-1 2-2-1v2l2 1h-3l-3 1 2 2 1-2 1 3 3 1v5l-5 4-4 1-1 5-3 3-3-1v2l-5 1-5 4-1-2-2 2-1 4-6 1-1 2h-2v2h5l2 4-3 3-4-1-2 2v2h2v2h-2v2l-3-1v-3h-2l-1 4-5 5-3 5-1 4h-2l-1 4h-6l-1-2v3l-3 8-2 2v-2l-6-2h-2v4h2l-1 2-2-1v2l2 1h-2v2l-3 1-1-4 1-1-5-2 1 5-1 3h-6v2l3 1v2h2v2h-2v3h-2l-2-3h-2l-1 2h-2l-1 3-2-1v-4h-3l2-4 2 2 3-2-6-1-4 2 1 4v3l1 5-3 4-4-1 1-2-2-1-2-5-3 1-4-1 1 5h4 2v2h2l1 5-5 1-6-3h-5l-1 1v6l-2 7-1 10-5 1v-181l52-10 182-34 365-68 559-104 26-5z" fill="#519877"/>
<path transform="translate(1965,349)" d="m0 0h2l3 13-1 5 1 9 1 21v38l-1 4v27l1 6-1 4v14l-1 5 1 4-2 1v5l2 4-1 5v1l-2 10 2 1-1 4 1 7-1 4 2 5h-2v8l1 4-1 1v54l2 1v2h-2v15l1 11 1 5-2 4h2v2h-2l1 5-1 4 1 6-1 5 1 5v17l-1 2 2 6-1 5 1 3-1 6 1 2-1 7v29l1 4-1 6v26l-1 2 2 6-1 4v7l1 5-1 6 1 9-1 4 1 8-1 5 1 3-2 8 2 5-1 2v10l-1 3 2 5-2 6h2v5l-1 5 1 3-1 8 1 5-1 4 1 6v7l1 5h-2l1 8v7l1 2-1 6 1 4-1 6 1 4-1 6v11l1 5-1 4 1 3v6 4 12l1 17v3l1 5v33l1 2-1 7 2 8-2 4 2 4-2 8 2 3-1 5h-2l3 5-1 4-1 3 2 5h-2l1 7-1 7 2 6h-2l1 6 1 4-1 5 1 6-2 4 2 3-1 9-1 7 2 1-1 7v14l1 2-1 5 1 3h-2l2 8-1 4 1 5-1 4 1 3-1 8 1 4-2 4 2 2-2 12h2v2h-2l2 9-2 3 2 4-1 14 1 8-2 4 1 2-1 2h2l-2 15 2 5-2 5v3h2l-1 5h-2l3 5-2 7v3h2l-1 9v4 4l1 5-1 5 1 3h-2l2 10-1 4 1 8-2 5h2l-1 10 1 9v11l-1 2h-2l3 5-1 9v4l1 9-2 2 2 4v7 3l-1 6 1 5-2 5 2 4v5h-2v3h2v2h-2l1 6 1 2-2 4 2 7-2 7h2l-2 9h2l-1 10 1 5h-2l2 6-1 11v4l-1 3 2 6-1 6 1 2h-2l2 10-2 5v4l2 1-2 6v8l1 5-1 3v6l2 1-1 2h-2l1 6-1 6-2 6-2 2-4 2-15 5-17-1-12-1v3h-3v-2l-8 1-6 1h-33l-2-1-7 1h-38l-3-1-5 1-8-1h-29l-2 1v-2l-7 1-8 1-1-1-19 1-1-1-10 1-4-1-6 1-4-1h-12l-4 1-10-1-4-1v2l-7-2-4 1h-7l-1-1h-8l-6 1-11-2h-10l-4 1-3-2-1 1h-17v-2l-6 1-5-1-1 2-12-1h-6l-3 1-7-1-4-1-1 2h-5l-5-1-7 1v-2l-10 1h-4-6l-5 1-9-1-8-1-2 1-5-1-1 2-13-2-7-1v2l-8-2v2l-9-1-4 1-7-1h-12-3-5l-2 1-11-2-1 2v-2l-12 1h-6-3l-3-2 3-1h234l322-1 15-1 1-1351z" fill="#177149"/>
<path transform="translate(1555,1194)" d="m0 0h321v126l-1 44h-7l1-8 1-5-1-8-4-2-2-3 1-9-1-5 1-4h-2l2-8-2-4 1-5 1-3-2-1-1-3h2l1-4-1-5 1-6-2-3 1-4h2l-2-5v-3l-2-1 2-5 2-8h-2l-1-5 1-4-1-6 3-6 1 3 3-1v-22l-2-5-3-1v-2l-6-1h-11-3l-7-1-1 2v-2l-4 4-4 2h-13l-7-1h-18l-9-1h-26l-4 1-1-1h-28l-14-1-5 2-1-1-14-1h-8-2-5l-3-1-1 1h-5v-2h-5l-1 2-5-1-2-1-1 2-1-2h-35l-29-1-4-2v2l-8-1-4 1h-10l-10 1-5 2-1-3v5l1 4v9l1 9 1 16v7 3l1 1v5 4 27l1 4-1 5 1 7v7l-1 4-3 2 1 4v13l-1 9-2 6 1 5 2 1-1 3 4 1v2l-4 1h-8v-170z" fill="#1D754E"/>
<path transform="translate(1537,940)" d="m0 0h339v133l-1 35h-7l-1-2h2v-6l1-5-1-3-2 1-1-5v-3h-2v-10l-1-1v-8l1-9 1-11-1-5 1-6-1-7 2-6-1-4v-6l1-4-1-8 1-5v-4l1-3-1-8-1-4 2-7 1-13h3l-1-7-4-3-4-2h-7l-2 1-3-1 1 4-7 2-5-1-8 1-18-2v-2l-9 2-5-2-1 2h-2v-2h-21l-2-1-10 1h-11l-27-1-1 3v-2h-9l-5-2-4 1h-8v3l-3-1-7-1-7-2-3 2-2 2v-3h-18l-4-1-5-1-5 2h-10l-4-2-1 2-9-2-1 2h-12l-5-2-1 2-6-1-3 1h-6l-3-1h-7l-5-1-6 2h-16v2l-5 3v19l1 9 1 6-1 5 1 7-1 3 2 2-1 7 2 3-1 8-1 6 1 4 1 29-1 7 1 13v8l-1 4h-3l-2 7 2 5v2l3 2-1 3h-9z" fill="#177149"/>
<path transform="translate(1537,1452)" d="m0 0h339v168h-8l2-9v-9l-1-16-2 1-1 9-2-2v-16l-1-3 2-4-1-9 1-4-1-5h2l-2-9 2-8 2 4v5l2 1-1-8v-68-3l-2-6h-3v-2h-2v-2l-17 1-5-1-16 1v2h-88-4l-13-1-1 1h-12l-4-1-2-1v2l-9-1-1 1h-5l-1-1v1h-6l-3-1-5 1h-13v-2h-2v2h-33l-10-1v-2l-5 1-1 2h-2v-2h-5l-3 1h-8l-10-2-4-1v2h-26l-5-1-1 4-2 4 3-1 2 16 1 7h-2l2 5v3h-2v2l2 1v5l-3 1v16l2 1-1 1v5l3-1-1 5h-2l1 7-1 7 1 4v10l-2 3 2 7-1 7 1 5-1 5 1 4-1 11-2 3 1 7 2 9-8 1z" fill="#177149"/>
<path transform="translate(2041,1714)" d="m0 0h7v33l-7 2h-2v2l-7-1-5-2-1-1-9 1-6-1-1 6 4 1 2 1-1 2h-2v2h2v5l-7 2h-2l-1 4 5-1-1 3h5v-4l3-2 9-3 2-1v3l2-1-2 5-3 4-2 4-6 3h-13l-6-1v2h-5l-6-2 1-4h4v2l7-1 3 1v-5l2-3-8 1-6 1-1 3h-7l-4-1-5 1-4-3h-3l-1-1-2 2-1-1h-11-4-2l-1 2-2 3h-18l-7 2-6-1h-4l-8 1-1 1h-53l-1-1-5 2-9-1h-8l-10 1h-21l-19 2-3-2 1-5 3-1h9l4 2 3-1 1-3h2v2l6-1 4-2 6 1v-3h4v2l6-1 1 4h6l1-3 7-1 4-1 5 3 8-2 4 1 1-2v2h2v-2l3-2 1-3h4v5h3 2v-2h2l1-3 4 2v2h14l2-1v-3l12 1 2 3h7l1-2h4l7-2v2l4 1 6-1 1-2 4 4 7-1 1-4 5 1h2l1-2v2l10-4 9 1 2 3 12 1 1-2 6 1v-8l-3-1h2v-4l6 1-2-2-1-4 12-5 3-8 6-7v-2l5 1 2-2 1 3 2 1 2-1 1-3-3-1v-3h3l2-4z" fill="#177149"/>
<path transform="translate(1036,2006)" d="m0 0 11 1 1 1 11 1 10 1 13 2 20 1 5 1h5l5 2 3-1 3 1 18 1 8 1 3 1 6-2h6l2-1 6 2h4l1-2 5-1 3 3 4 10 4 3h1l1 14-1 3h-7l-15-4-124-23-3-2-7-1-1-4-4-2 2-5z" fill="#18724A"/>
<path transform="translate(2044,1459)" d="m0 0h4v159l-5 2v9h-2v2l-8-1v-5l2-1v-2h-2v-2h-3l1-3 1-2v-5l2-2-2-3v-5l1-2v-10l-6-1v-4l3-1v-2l-3-1 2-1-3-8 4-2 1 3 3 1 1-3-3-1-1-4 2-10-2-1 1-6 1-4h-2l-1-4 2-1v-8l2-4-3-3 1-3h2l-1-5-5-1 2-1 1-2h2l2-7-3-1 1-3 8-1-3-2-3-3v-2h-2l-1-5h2v-2l-2-1h3l-1-4v-3l-1-5-1-2 3-6h6v-3h2z" fill="#18714A"/>
<path transform="translate(1537,684)" d="m0 0h35v2l-14 1h-8l-4 1-5 6v10l2 9 1 9 1 4v17l1 3-1 4 1 3v6 3 21l1 2-1 6v9l1 1v32l-2 5-3 1 2 7v2l1 4-8 1z" fill="#177149"/>
<path transform="translate(176,1741)" d="m0 0 2 4v2l-1 2-4-2v2l2 1-5 2-2 1-1 7-5 3h-2l-3-3-4 1v2l7 2 8 1 4-4 1 2h2v2h-2l-2 4-4 3h-6v-2h-2v2h-2l-1-2h-3l-7-1v-9h-3l-1 3h-2l-2 6h2l4-1 1 6-5 2-3-3-5-2v2l-4 3-3-1v-3h-3l1 3-4 1-1 1h-5l-1 2h-4l-2-3-2 2v-2h-3l1 4h-2v-2l-3 1-2-2-9 1-2-2v-4l5-1h4v-2l6 1 4-1 1-3 8-1v4h7l10-1 1-3-2-2-3 2-12-4 1 4-3-1-1-5-5-2-1-4 7 1 1-3 7 1 2 1v3l4-1 1-5 3 2 2 4h5l3 1v3l1-5h2v-2l7 2 3-2 6-1 3-3 5-2h5v-3l4 1v-2h-2l1-2 2 1z" fill="#519877"/>
<path transform="translate(1292,940)" d="m0 0h158l-1 10v1 48l-2 3v-13l-2-1 1-4-1-6v-22l-4-7-5-1v-1h-7l-7-1h-7l-9-1-4-2-2 2-3-1-6-1h-3l-8 1-4-1h-18l-8-1-1 2-1-1h-20l-19-1h-11l-6-1z" fill="#177149"/>
<path transform="translate(1342,684)" d="m0 0h108l-1 95-2-1v-14l-2-25v-11l-1-7 2-11-1-8h2l-3-5-4-6-19-2h-15l-5-2-4 1-6-1h-13l-17-1h-18z" fill="#177149"/>
<path transform="translate(1700,1772)" d="m0 0h2v2l8 1 3-1 5 1 9-2 3-1 6 6v-2l2-1 12-1 6 2 2-1h6l4 4v2l-14 1-5-1v-2h-4l-2 2-11 1-3-2-8 2-5-1h-7l-5-2v2l-7-2-1 2-15-1h-9-4-11l-4-1-5 2-3-2 2-4h7l2-1 5 2h8l3-1 6 2 1-3 5 1 4 1 7-2z" fill="#177149"/>
<path transform="translate(78,1772)" d="m0 0 4 2v2l-3 2-3 1v3h13l5-1 9 1-2 3-3 5-5 1-6-3v2l-5 2-4 1-1-2-11 2-2-1-4-3h-4v2h-5v-2l-7 2-5-2-5-1v-3l9-2 4-1v-3l4-1 1 4-5 3v2l6-2-1-2h3l3-3 5 1 4-1 1-2 8-2v-3z" fill="#519877"/>
<path transform="translate(2044,1459)" d="m0 0h4v47l-1 1h-5l-3-6 2-2-3-2-3-3v-2h-2l-1-5h2v-2l-2-1h3l-1-4v-3l-1-5-1-2 3-6h6v-3h2z" fill="#177149"/>
<path transform="translate(1366,1196)" d="m0 0h84l-2 7-5-1v2l-6 1-2-2-4-1h-13l-17-2h-10l-7-1h-11l-7-1z" fill="#177149"/>
<path transform="translate(1975,256)" d="m0 0h19l-1 2h-10l-5 2-5-1-11 1-1-1h-146l-104-1v-1z" fill="#177149"/>
<path transform="translate(1365,1452)" d="m0 0h85l-2 8-7-3v-2l-11-1-1 4-7 1-14-1-22-2-10-1-13-1z" fill="#177149"/>
<path transform="translate(1874,452)" d="m0 0h1v53l-1 3v28l-1 3v7h-2l-1 2v-12l1-4-1-4 1-9-1-3 1-6v-3-19l2-1-1-5-1-8 1-5v-7l-1-4z" fill="#177149"/>
<path transform="translate(1538,459)" d="m0 0h1l1 16 1 55v41l-1 12-2 1z" fill="#177149"/>
<path transform="translate(305,1380)" d="m0 0 1 3 87 6 47 4h5l4-4-1 5-1 1h-12l-51-4-19-1-20-2-40-3-1-2z" fill="#529978"/>
<path transform="translate(1450,683)" d="m0 0h1v170l-1 1h-31v-1l29-1 1-16z" fill="#529978"/>
<path transform="translate(1444,1206)" d="m0 0 5 2v54l-2 2-1-3-2-17v-19l2-16h-2z" fill="#177149"/>
<path transform="translate(1191,1630)" d="m0 0h2v47l-2 1-2-8 1-5-1-10v-9l-1-4 2-4-1-4z" fill="#177149"/>
<path transform="translate(1446,1469)" d="m0 0 3 1v42l-2 3-1-11-1-5-1-4 1-6v-19z" fill="#177149"/>
<path transform="translate(112,1596)" d="m0 0 6 1v3l5-1 2 1v2l-3 3-9-2 4 4-2 4h-2v2l-3 1-1-4-1-3 2-1v-2l-3-1 2-3h3l-1-3z" fill="#4F9776"/>
<path transform="translate(1992,1769)" d="m0 0h12l-2 8h-10v-2l-4-1 2-4z" fill="#32845E"/>
<path transform="translate(112,1752)" d="m0 0 7 1-1 5-2 2-1 3-2-1 1 4-3-1-1-5-5-2-1-4 7 1z" fill="#4C9573"/>
<path transform="translate(1192,1375)" d="m0 0h1v44l-2-1v-14l-1-13-1-5h2v-10z" fill="#177149"/>
<path transform="translate(34,358)" d="m0 0 7 1-4 4-3-1-1 2h3l1 6-3 4-3-2v-2l-3-1 2-5v-5z" fill="#33855F"/>
<path transform="translate(1192,1118)" d="m0 0h1v39l-2-1-1-23 1-13z" fill="#177149"/>
<path transform="translate(110,1561)" d="m0 0 5 1 6 4-1 2-2-1 1 3-5 2-4-3v-4l-1-3z" fill="#4D9574"/>
<path transform="translate(92,1640)" d="m0 0 1 3 7-3 5 1-1 3-1 2h-6l-2 1-5-1 2-1-3-1v-2h3z" fill="#519877"/>
<path transform="translate(1184,1)" d="m0 0h6v3l-5 5-6 1-1-4 1-4z" fill="#358661"/>
<path transform="translate(1830,684)" d="m0 0h28v1l-10 2-8 1-9-2z" fill="#177149"/>
<path transform="translate(1359,1708)" d="m0 0h28l1 2-4 1-10 1v-2l-11 1-5-1z" fill="#177149"/>
<path transform="translate(2038,1446)" d="m0 0 3 3v5l3 5-5 1-5-2 2-8z" fill="#177149"/>
<path transform="translate(143,1761)" d="m0 0h3l1 7-3 2h-4l-1 2-2-4z" fill="#348660"/>
<path transform="translate(122,1560)" d="m0 0 11 6 1-2 2 2-2 1-2 3-2-1-1 4-1-2h-3v-6l-3-3z" fill="#509776"/>
<path transform="translate(2045,1463)" d="m0 0h2l1 2v8l-1 2h-4l-2-6 2-5z" fill="#33855F"/>
<path transform="translate(1338,1196)" d="m0 0h27v2l-5 1h-12l-10-1z" fill="#177149"/>
<path transform="translate(256,493)" d="m0 0 3 1v3l6 2-1 5h-4l-1-4-2 2-3-4z" fill="#519877"/>
<path transform="translate(93,1629)" d="m0 0h3v3l3 3-4 6-3-2v-7z" fill="#4E9675"/>
<path transform="translate(111,1573)" d="m0 0 5 2v3l2 5-3 4v-2h-3v-3l-2-1 3-2z" fill="#4F9775"/>
<path transform="translate(1449,1079)" d="m0 0h1l1 30-1 1h-12v-1l10-1z" fill="#529978"/>
<path transform="translate(1866,684)" d="m0 0h10v5l-4 1-5-2z" fill="#177149"/>
<path transform="translate(1338,1708)" d="m0 0h18l1 2-4 2-2-1h-8l-5-1z" fill="#177149"/>
<path transform="translate(452,159)" d="m0 0 2 2h-3l-1 3-6-1-2 1h-9v-1l14-3z" fill="#33855F"/>
<path transform="translate(115,1597)" d="m0 0h3v3l5-1 2 1v2l-3 3-7-2z" fill="#489270"/>
<path transform="translate(2039,1501)" d="m0 0h9v5l-1 1h-5z" fill="#33855F"/>
<path transform="translate(1873,582)" d="m0 0 2 2v12h-5l1-4 1-7z" fill="#177149"/>
<path transform="translate(1154,12)" d="m0 0h10l2 5-6 1v-2h-4v-3z" fill="#33855F"/>
<path transform="translate(549,1207)" d="m0 0 1 3-6 12-5 5 2-6 6-10z" fill="#529978"/>
<path transform="translate(34,358)" d="m0 0 7 1-4 4-3-1v4h-3l-1-7z" fill="#378862"/>
<path transform="translate(302,1387)" d="m0 0 1 4-2 4 4 1v3l-8-4 2-6z" fill="#509776"/>
<path transform="translate(1314,684)" d="m0 0h18v2l-3 1-16-1z" fill="#177149"/>
<path transform="translate(307,390)" d="m0 0h3v6l-1 1 1 2h-5l-1-5z" fill="#519877"/>
<path transform="translate(1262,1708)" d="m0 0h18v2l-8 1-9-1z" fill="#177149"/>
<path transform="translate(2044,1487)" d="m0 0 4 2v5l-6-1v-2l-3-1z" fill="#32845E"/>
<path transform="translate(2043,1476)" d="m0 0h5v9h-2l-3-5z" fill="#31835D"/>
<path transform="translate(242,515)" d="m0 0 1 3 3 1-2 1 1 6-4-1-1-9z" fill="#4F9775"/>
<path transform="translate(1867,428)" d="m0 0h9v4l-5 1-4-2z" fill="#177149"/>
<path transform="translate(112,1596)" d="m0 0 4 4-5 5-4-2 2-3h3l-1-3z" fill="#4D9574"/>
<path transform="translate(2038,1279)" d="m0 0 5 2v2l2 1-2 3h-2l-2-2-2-4z" fill="#177149"/>
<path transform="translate(240,488)" d="m0 0 3 3 1 3-5 3-2-5 1-2h2z" fill="#4D9573"/>
<path transform="translate(472,155)" d="m0 0 2 2-8 3v-2l-6 2h-6l4-2 9-2z" fill="#33855F"/>
<path transform="translate(1052,2017)" d="m0 0 5 1 1 4-10-1 4-2z" fill="#368761"/>
<path transform="translate(142,1600)" d="m0 0 2 1-1 1v7l-3 1-3-1v-2h4v-2h-3l1-3z" fill="#509877"/>
<path transform="translate(433 1e3)" d="m0 0 4 4 4 8-1 4-3-5-2-5-2-3z" fill="#529978"/>
</svg>
