<?xml version="1.0" encoding="UTF-8"?>
<svg version="1.1" viewBox="0 0 2048 2048" width="512" height="512" xmlns="http://www.w3.org/2000/svg">
<path transform="translate(400,32)" d="m0 0h135l8 16 11 24 12 26 7 15v2l10 3 40 17 8-1 40-15 28-11 9-4 5 2 93 93-1 6-11 31-11 30-6 16v8l11 27 8 19 8 5 20 9 30 14 24 11 2 3v37l109 1v-90l2-16 4-13 6-12 8-10 8-8 14-9 13-5 5-1 16-1h480l17 1 12 3 16 8 14 12 9 13 6 13 4 18v97h39l21 2 25 4 28 7 30 10 25 11 25 13 20 13 18 13 11 9 15 13 23 23 9 11 12 15 16 24 9 15 11 21 9 21 9 25 7 27 5 26 2 16 2 28v20l-3 37-5 28-6 24-10 30-10 23-14 27-15 23-10 14-13 16-12 13-5 6h-2l-1 3-8 7-14 13-20 15-16 11-20 12-23 12-24 10-24 8-27 7-29 5-37 3-154 1 16 16 6 12v12l-4 9-7 8-6 4-12 3-11-3-9-6-66-66-7-14v-9l4-10 6-8h2l2-4h2l2-4h2l2-4 12-12h2l2-4h2l2-4h2l2-4h2l2-4h2l2-4h2l2-4h2l2-4 8-8h2v-2l9-6 8-3h8l9 3 6 4 6 7 4 9v11l-4 10-9 10-9 9h170l29-4 29-7 24-8 27-12 20-11 18-12 16-12 10-9 8-7 18-18 8-10 9-11 10-15 9-15 10-19 9-21 8-24 6-25 5-33v-50l-5-34-5-21-11-33-9-20-12-22-12-18-12-16-10-11-7-8-13-13-8-7-15-12-19-13-15-9-15-8-21-9-20-7-26-7-24-4-34-3-19-1v96l-5 22-8 15-8 10-8 7-15 9-12 4-8 1-24 1h-445l-40-1-9-2-12-5-11-7-8-7-9-12-7-14-3-12-1-5-1-40v-60h-109v38l-4 4-33 15-28 13-16 7-3 3-19 46v8l23 63 6 16-1 5-94 94-9-3-28-11-29-11-17-6h-6l-28 12-20 8-12 25-25 55-2 3h-135l-4-6-15-33-13-28-7-15-14-7-37-15-10 3-49 18-22 8-7 2-11-12-83-83 1-5 29-78v-6l-16-39-5-10-14-7-50-23-17-8-1-1-1-132 3-4 26-12 37-17 17-8 6-12 15-37v-6l-17-46-13-35 2-5 4-2v-2l8-7 11-11 7-8h2l2-4 58-58 5 1 28 10 30 11 21 8h7l23-10 24-10 8-16 15-32 12-26zm57 282-21 3-21 7-17 9-16 12-15 15-10 14-6 10-8 19-4 15-3 26 2 19 4 19 6 16 10 18 10 13 15 15 16 11 17 9 21 7 11 2 13 1h12l19-2 18-5 16-7 12-7 11-8 10-9 7-7 8-11 7-11 6-12 6-18 3-13 1-12v-14l-2-19-5-18-7-16-8-14-10-13-14-14-14-10-14-8-15-6-14-4-17-2z" fill="#FBC041"/>
<path transform="translate(774,909)" d="m0 0h498l14 2 14 5 11 7 11 10 9 13 5 11 3 10 1 11v244l-1 14-5 15-8 13-9 10-8 7-10 6-15 5-10 2h-502l-16-4-16-8-12-11-7-8-8-16-3-9-2-18v-90l-312 1-26 2-22 4-23 6-21 7-27 12-23 13-15 10-12 9-13 11-10 9-15 15-9 11-8 10-12 17-12 21-8 15-11 27-7 23-6 27-3 21-1 18v23l2 23 5 30 7 26 8 22 11 24 10 18 12 18 13 17 10 11 7 8 11 11 8 7 14 11 11 8 17 11 24 13 19 8 22 8 22 6 29 5 32 2 19 1v-95l3-16 6-15 9-13 10-10 13-8 12-5 9-2 10-1h494l16 2 15 5 10 6 13 11 9 12 6 13 3 10 1 9v248l-1 13-6 16-10 16-9 9-13 8-11 5-10 3-17 1h-489l-14-1-19-7-13-9-10-10-7-11-5-10-4-16-1-9-1-91-35-1-27-3-18-3-27-6-36-12-25-11-23-12-22-14-14-10-14-11-15-14-12-11-11-12-10-11-12-16-10-14-13-21-12-23-9-21-7-19-7-23-7-34-2-14-2-24v-36l3-32 5-27 6-24 10-29 11-25 12-23 15-24 13-17 7-9 10-11 7-8 19-19 11-9 12-10 17-12 19-12 22-12 22-10 24-9 28-8 24-5 33-4 27-1h74l223 1v-95l2-14 5-13 7-12 9-10 8-7 10-6 13-5z" fill="#FDDC76"/>
<path transform="translate(1065,251)" d="m0 0h480l17 1 12 3 16 8 14 12 9 13 6 13 4 18v97h39l21 2 25 4 28 7 30 10 25 11 25 13 20 13 18 13 11 9 15 13 23 23 9 11 12 15 16 24 9 15 11 21 9 21 9 25 7 27 5 26 2 16 2 28v20l-3 37-5 28-6 24-10 30-10 23-14 27-15 23-10 14-13 16-12 13-5 6h-2l-1 3-8 7-14 13-20 15-16 11-20 12-23 12-24 10-24 8-27 7-29 5-37 3-154 1 16 16 6 12v12l-4 9-7 8-6 4-12 3-11-3-9-6-66-66-7-14v-9l4-10 6-8h2l2-4h2l2-4h2l2-4 12-12h2l2-4h2l2-4h2l2-4h2l2-4h2l2-4h2l2-4h2l2-4 8-8h2v-2l9-6 8-3h8l9 3 6 4 6 7 4 9v11l-4 10-9 10-9 9h170l29-4 29-7 24-8 27-12 20-11 18-12 16-12 10-9 8-7 18-18 8-10 9-11 10-15 9-15 10-19 9-21 8-24 6-25 5-33v-50l-5-34-5-21-11-33-9-20-12-22-12-18-12-16-10-11-7-8-13-13-8-7-15-12-19-13-15-9-15-8-21-9-20-7-26-7-24-4-34-3-19-1v96l-5 22-8 15-8 10-8 7-15 9-12 4-8 1-24 1h-445l-40-1-9-2-12-5-11-7-8-7-9-12-7-14-3-12-1-5-1-40v-60h-109v-56h109v-90l2-16 4-13 6-12 8-10 8-8 14-9 13-5 5-1z" fill="#6FF7C5"/>
<path transform="translate(497,1565)" d="m0 0h494l16 2 15 5 10 6 13 11 9 12 6 13 3 10 1 9v248l-1 13-6 16-10 16-9 9-13 8-11 5-10 3-17 1h-489l-14-1-19-7-13-9-10-10-7-11-5-10-4-16-1-9v-244l3-16 6-15 9-13 10-10 13-8 12-5 9-2z" fill="#FD676E"/>
<path transform="translate(1722,1500)" d="m0 0h34l23 3 19 4 26 8 26 11 23 13 16 11 11 9 14 12 14 14 9 11 12 16 11 18 12 23 9 24 6 21 4 20 3 30v21l-3 30-5 23-8 26-9 21-11 21-12 18-10 13-18 20-7 7-8 7-14 11-21 14-27 14-26 10-23 6-28 5-14 1h-12l-29-2-30-5-22-6-19-7-18-8-21-12-16-11-11-9-13-11-17-17-11-14-9-12-11-18-8-15-8-19-7-21-6-26-3-20-1-12v-28l3-26 5-24 11-33 7-16 13-23 8-11 10-14 9-10 7-8 14-14 14-11 15-11 17-10 15-8 25-10 20-6 24-5z" fill="#87C5FD"/>
<path transform="translate(1622,403)" d="m0 0h1v13h39l21 2 25 4 28 7 30 10 25 11 25 13 20 13 18 13 11 9 15 13 23 23 9 11 12 15 16 24 9 15 11 21 9 21 9 25 7 27 5 26 2 16 2 28v20l-3 37-5 28-6 24-10 30-10 23-14 27-15 23-10 14-13 16-12 13-5 6h-2l-1 3-8 7-14 13-20 15-16 11-20 12-23 12-24 10-24 8-27 7-29 5-37 3-154 1 16 16 6 12v12l-4 9-7 8-6 4-12 3-11-3-9-6-66-66-7-14v-9l4-10 6-8h2l2-4h2l2-4h2l2-4 12-12h2l2-4h2l2-4h2l2-4h2l2-4h2l2-4h2l2-4h2l2-4 8-8h2v-2l9-6 8-3h8l9 3 6 4 6 7 4 9v11l-4 10-9 10-9 9h170l29-4 29-7 24-8 27-12 20-11 18-12 16-12 10-9 8-7 18-18 8-10 9-11 10-15 9-15 10-19 9-21 8-24 6-25 5-33v-50l-5-34-5-21-11-33-9-20-12-22-12-18-12-16-10-11-7-8-13-13-8-7-15-12-19-13-15-9-15-8-21-9-20-7-26-7-24-4-34-3-19-1-1 4-1-3-1-12v-18z" fill="#A0ABB4"/>
<path transform="translate(411,1072)" d="m0 0h74l222 1 1 2v55l-312 1-26 2-22 4-23 6-21 7-27 12-23 13-15 10-12 9-13 11-10 9-15 15-9 11-8 10-12 17-12 21-8 15-11 27-7 23-6 27-3 21-1 18v23l2 23 5 30 7 26 8 22 11 24 10 18 12 18 13 17 10 11 7 8 11 11 8 7 14 11 11 8 17 11 24 13 19 8 22 8 22 6 29 5 32 2 19 1 1 6v48l-2 4-35-1-27-3-18-3-27-6-36-12-25-11-23-12-22-14-14-10-14-11-15-14-12-11-11-12-10-11-12-16-10-14-13-21-12-23-9-21-7-19-7-23-7-34-2-14-2-24v-36l3-32 5-27 6-24 10-29 11-25 12-23 15-24 13-17 7-9 10-11 7-8 19-19 11-9 12-10 17-12 19-12 22-12 22-10 24-9 28-8 24-5 33-4z" fill="#A0ABB5"/>
<path transform="translate(457,254)" d="m0 0h12l15 2 13 2 22 5 15 5 11 5 7 3 6 2v2l4 1 11 6 8 5v2h3l5 5 2 1v2l4 2 2 4h2v2l4 2v2l4 2 7 9 8 11 8 13 1 5 2 1 1 1v5h2v4h2v5l2 1 5 15 6 21 3 16 1 7-1 1 1 8 1 11-1 14-4 24-3 7-3 10-3 7-5 10-4 9-6 10-4 8h-2l-1 4h-2l-1 5-4 4-1 3h-2l-2 4-7 8-5 4-4 4-12 9h-2v2l-4 1v2l-4 2h-3l-1 3-5 2h-3l-1 3h-4v2l-14 6-5 1-1 2-4 1-12 4-17 4-9 1-2 1-15 1h-16l-22-3-19-4-15-5-10-4-12-5v-2h-3v-2l-4-1-5-3v-2l-6-1-2-1v-2l-4-2v-2h-4v-2l-4-1v-2l-4-2-10-9-9-9-7-8-3-6-4-4v-2l-2-1 1-2h-2l-5-7v-3h-2l-2-5-2-4-1-4-2-1-4-9-5-11-3-13-2-13-1-10-2-15v-17l4-29 4-13 2-6 5-12 8-16 7-12 6-9h2l1-4 9-10 3-4h2l1-4h2v-2h2l2-4h2v-2h2v-2l5-2v-2h4l2-4h3l2-4h2v-2l10-6h3v-2l15-9 12-5h4l1-2 9-2 9-4 4-1 10-2 13-2zm0 60-21 3-21 7-17 9-16 12-15 15-10 14-6 10-8 19-4 15-3 26 2 19 4 19 6 16 10 18 10 13 15 15 16 11 17 9 21 7 11 2 13 1h12l19-2 18-5 16-7 12-7 11-8 10-9 7-7 8-11 7-11 6-12 6-18 3-13 1-12v-14l-2-19-5-18-7-16-8-14-10-13-14-14-14-10-14-8-15-6-14-4-17-2z" fill="#EDAC31"/>
<path transform="translate(1020,1574)" d="m0 0 4 1 8 3 13 11 9 12 6 13 3 10 1 9v248l-1 13-6 16-10 16-9 9-13 8-11 5-10 3-17 1h-489l-14-1-19-7-13-9-10-10v-3l9-1 17 1 15-1 22 1h16l6-1 5 1 31-1 305 1h27l9-1 4 1 32-1 4-1 27-1 12-4 2 1v-2l10-5 12-10 7-8 6-11 4-11 2-16v-9l1-19v-222l-2-15-3-7z" fill="#F94B56"/>
<path transform="translate(1576,257)" d="m0 0 5 1 10 6 13 11 9 13 6 13 4 18v84l-2 40v18l1 12 1 3v92l-5 22-8 15-8 10-8 7-15 9-12 4-8 1-24 1h-445l-40-1-9-2-12-5-11-7-8-7-7-9 1-3 8 2 1 1 10 1h479l22-1 11-2 16-7 11-8 9-10 8-14 4-12 2-14 1-167v-41l-1-39-2-15-7-18z" fill="#02E49A"/>
<path transform="translate(1319,1666)" d="m0 0h10l10 4 10 9 61 61 5 8 2 12-3 10-6 9-66 66-10 5-3 1h-8l-10-3-10-9-5-12v-8l4-11 9-10 9-9 1-2h-170l-11-1-9-4-5-4-5-8-2-6v-11l4-10 5-6 12-6 181-1-9-10-7-7-5-9-2-5v-9l4-11 5-6 8-5z" fill="#A0ABB5"/>
<path transform="translate(856,1124)" d="m0 0h333l8 2 7 4 6 7 3 7 1 5v7l-4 11-6 7-8 4-3 1-12 1h-322l-9-2-8-6-6-8-2-7v-10l4-11 6-7 8-4z" fill="#FEFEFE"/>
<path transform="translate(1142,467)" d="m0 0h324l13 2 8 5 5 5 4 9v14l-6 10-8 7-9 3-11 1h-254l-69-1-10-3-9-8-4-8-1-8 2-10 6-10 9-6z" fill="#FEFEFE"/>
<path transform="translate(583,1781)" d="m0 0h323l13 2 9 7 5 7 2 8-1 11-4 9-5 6-8 4-6 1-32 1h-290l-13-1-8-3-8-7-5-11v-13l5-10 9-8 6-2z" fill="#FEFEFE"/>
<path transform="translate(1816,1676)" d="m0 0h10l9 3 6 4 6 7 2 5v16l-7 12-18 18-8 7-7 7-8 7-18 18-8 7-31 31-8 7-11 10-12 6h-12l-9-4-8-6-56-56-5-9-1-4v-11l4-10 5-5 9-6 3-1h12l10 4 9 7 32 32 4-1 15-14 7-7 8-7 24-24 8-7 11-11 8-7 9-9 10-7z" fill="#FEFEFE"/>
<path transform="translate(1273,365)" d="m0 0h74l120 1 14 3 8 6 4 5 3 7v14l-4 8-8 8-11 4-11 1h-140l-63-1-9-3-8-8-4-8-1-3v-9l4-10 7-8 6-4 6-2z" fill="#FEFEFE"/>
<path transform="translate(981,1023)" d="m0 0h137l74 1 9 3 7 6 5 10 1 5v8l-3 8-6 8-6 4-7 2-10 1h-204l-10-4-5-4-6-10-1-3v-13l5-12 7-6 7-3z" fill="#FEFEFE"/>
<path transform="translate(712,1680)" d="m0 0 203 1 9 4 7 8 3 6 1 5v7l-3 10-6 8-6 4-7 2-21 1h-190l-10-3-8-5-6-10-1-3v-14l5-10 8-7 7-3z" fill="#FEFEFE"/>
<path transform="translate(879,378)" d="m0 0h1v132l-4 4-33 15-28 13-16 7-3 3-19 46v8l23 63 6 16-1 5-94 94-9-3-8-3v-3l-6-2 1-3h-2v-3l6-2 10-5 5-3 4-2v-2l5-5 12-10 5-5 6-7 2-1-1-5 4-3h2 3v-2l3-2 2-4h3v-2l5-4 4-6h2l2-9 1-6-1-3 2-3 1-5h2l-4-16-4-6-3-5-2-1v7l-5-5-2-4 2 10v5l-5-5-5-13-2-9-7-14v-8l3-16 6-13 3-9 7-14 5-6 9-6h3l3-3 11-4 10-5h2v-2l15-5h3v-2l12-6h3l-1-8 2-10 1-21 1-12v-3-12l3-7 3-6 3-5 1-2 2 1 1 5 7 1v7l-1 3 5 2 2 7h2l1-7 2-1 1-21 2-4 3 1 1 5 2 8 1-14v-6l-2-1-1-5 1-2h2z" fill="#EDAC31"/>
<path transform="translate(1961,1661)" d="m0 0 3 2 4 1 9 22v5l2 1 3 15 3 6v8l-1 4 4 12 4 3 1 11v29l-3 24-5 22-10 30-13 27-11 18-14 19-11 12-7 8-8 8-8 7-14 11-21 14-27 14-26 10-23 6-21 4h-9v-1l6-2 3-3 9-4 14-4 9-4h4v-2l19-10 11-6 5-3h3v-2l12-7 11-7h2v-2l7-6 8-7 13-12 6-8h2l2-4 6-8 5-7 5-5h2l2-4 9-13 14-27 8-25 1-7 1-2 2-28v-24l-1-8v-7l3-11-1-2v-10l1-3 3 1v-16l1-3h-2l1-4 1 2v-5l-3-5-3-16v-8l2 1-1-4h-3l-1-8z" fill="#6EB1EB"/>
<path transform="translate(990,405)" d="m0 0h1v53l-1 19h-1v-5h-109v-56h109v-8z" fill="#A0ABB5"/>
<path transform="translate(768,173)" d="m0 0 5 4 6 7h2l1 2 4 1 2 1v2h5 4l8 8-1 5-2 1-3 11-2 1-1 4h-2l-2 5-4 12-4 15h-2l-3 12-6 10-4 10 1 10 3 7 1 4 3 1 4 9v2h2l2 10v3l-7 1-9-4h-1v2l-4 2h-3l-1 5-6-4-7-10-7-15-5-16v-9l6-12 4-4 1-6 2-7 2 3 1-6 1-5 2 1 4-9 2-5 3-4 3-6 4-1 3-3h2l1-6 1-1 1-10-5-15-2-5h-2l-2-4-2-1z" fill="#EDAC31"/>
<path transform="translate(861,1023)" d="m0 0h25l12 3 6 4 7 8 2 6v14l-5 10-8 7-7 3-5 1h-31l-10-4-9-8-4-10v-10l3-10 8-9 9-4z" fill="#FEFEFE"/>
<path transform="translate(1141,366)" d="m0 0h27l12 3 8 5 6 8 2 6v11l-6 12-7 6-6 3-5 1h-34l-9-3-9-8-4-8-1-9 2-10 6-8 6-5 7-3z" fill="#FEFEFE"/>
<path transform="translate(582,1680)" d="m0 0h24l10 2 8 4 7 8 3 7v13l-4 10-7 7-10 4-7 1h-24l-12-3-8-6-5-7-2-6v-12l4-9 7-8 10-4z" fill="#FEFEFE"/>
<path transform="translate(595,748)" d="m0 0h10l3 1v6l-12 7-13 3-9 3-3 4h-2v2h-2l-1 4-6 12-2 8-10 19-1 3h-2l-3 10-6 12v7l-4 5-1 2h-34l3-3-1-5 1-1-1-5 2-4 4-4v-3h2l1-2h2l1-5 6-7 8-15 3-8 9-17 4-2 8-6 13-7 8-3 10-6z" fill="#EDAC31"/>
<path transform="translate(400,32)" d="m0 0h135l7 14-1 4-2 4 2 1v5h2l2 4v4h2l8 22 2 4-3 3v-2h-4l-1-4-3 1-7-11-3-9-2-5-6-5-3-7-9-3-5-4-9-3-4-2v-2l-4-2-6-4-39-1h-43l-6-1z" fill="#EDAC31"/>
<path transform="translate(875,502)" d="m0 0h3l1 2v8l-14 7-66 30-3 3-19 46v8l10 27-1 3v-2l-5-2-2-6v-3-2l-3-1-3-4-3-14 3-10 4-8 3-4 4-8 1-6h2v-8l4-6 10-10 17-7 3-2h3l1-3 8-4 7-3 10-3v-2l10-3 3-2 9-2 2-3z" fill="#FCC245"/>
<path transform="translate(804,683)" d="m0 0 2 2-1 5-86 86h-1v-6l6-10 10-10h2l1-3 8-7 26-26 7-8 12-10h3v-2l4-1 1-3 5-4z" fill="#FCC144"/>
<path transform="translate(600,759)" d="m0 0m-2 1 3 1-2 2-25 10-12 25-25 55-2 3h-4l2-5 2-2v-7l5-11 2-1 3-10h2l1-5 10-19 2-8 7-14h2v-2l5-5 20-6z" fill="#FCC346"/>
<path transform="translate(1736,488)" d="m0 0 10 3 16 6 19 10 16 9 9 6 11 8 10 8 7 7 8 6 17 17v2l3 1 6 8 7 7 9 14 10 14 7 14 1 5-3-4-11-19-12-17-8-10-9-10-7-8-13-13-8-7-15-12-19-13-15-9-15-8-21-9-11-4z" fill="#F4C14F"/>
<path transform="translate(1844,483)" d="m0 0 5 2 16 13 15 13 23 23 9 11 12 15 16 24 9 15 11 21-1 3-9-14-4-8-6-11-6-10-6-8-4-7-4-5-10-13-14-15-7-8-12-12-8-7-10-9-10-8z" fill="#F4C14F"/>
<path transform="translate(1828,540)" d="m0 0 8 6 10 9 13 13v2l3 1 6 8 7 7 9 14 10 14 7 14 1 5-3-4-11-19-12-17-8-10-9-10-7-8-13-13-8-7-3-2z" fill="#F0B640"/>
<path transform="translate(1397,1115)" d="m0 0 10 10 7 6v2l4 2 37 37 8 7 6 5v3h2v2l4 1-1 2-9-6-66-66z" fill="#EEB037"/>
<path transform="translate(708,109)" d="m0 0 1 2 4 1 2 6 3 4 3 7-1 3-6-4-11-5h-3l-1-5 1-3 5-5z" fill="#EDAC31"/>
<path transform="translate(1844,483)" d="m0 0 5 2 16 13 15 13 23 23 6 7-1 2-12-11-7-8-12-12-8-7-10-9-10-8z" fill="#F8CC5F"/>
<path transform="translate(861,375)" d="m0 0 7 2v2h2l2 6-1 9-2 2v-2l-4 1-2-1-3-8-2-5v-3h2z" fill="#EDAC31"/>
<path transform="translate(1438,1043)" d="m0 0 2 1-7 8-2 3h-2v2l-8 7-21 21-1 2h-2l2-4 3-4h2l2-4h2l2-4h2l2-4 12-12h2l2-4h2l2-4h2z" fill="#F7CA5C"/>
<path transform="translate(1865,966)" d="m0 0v3l-5 7-17 17h-2l-2 4-7 6-6 4-2-1 11-10 8-7 18-18z" fill="#F4C14F"/>
<path transform="translate(1828,540)" d="m0 0 8 6 10 9 13 13v2l3 1 2 4-4-1-9-10-12-12-8-7-3-2z" fill="#EAAD38"/>
<path transform="translate(1791,515)" d="m0 0 6 1 9 6 11 8 10 8 1 4-8-6-18-13-11-7z" fill="#F5C352"/>
<path transform="translate(1952,1640)" d="m0 0h3l1 2 3 1 1 3h2l1 5-1 2-7-2h-3z" fill="#6EB1EB"/>
<path transform="translate(149,1671)" d="m0 0 4 2 18 18 8 7 2 4-6-4-9-9-8-7-9-10z" fill="#F0B641"/>
<path transform="translate(227,1735)" d="m0 0 6 1 6 4 12 6 9 5 3 3-5-1-25-13-6-4z" fill="#F1B842"/>
<path transform="translate(1944,596)" d="m0 0 6 5 10 19-1 3-9-14-4-8z" fill="#F0B640"/>
<path transform="translate(1888,521)" d="m0 0 4 2 11 11 6 7-1 2-12-11-7-8z" fill="#F9D065"/>
<path transform="translate(1736,488)" d="m0 0 10 3 16 6 3 3-7-1-20-8-3-2z" fill="#F3BD49"/>
<path transform="translate(1884,603)" d="m0 0 3 1 7 10 7 14 1 5-3-4-11-19z" fill="#F4C75D"/>
<path transform="translate(1048,1921)" d="m0 0v3l-7 8-9 7v-3l3-1v-3l9-7z" fill="#FD706E"/>
<path transform="translate(1841,1524)" d="m0 0 7 1 9 5 1 2-4 1-6-4-6-2z" fill="#73B5EF"/>
<path transform="translate(1413,1068)" d="m0 0 3 1-16 16-1 2h-2l2-4 3-4h2l2-4h2l2-4h2z" fill="#F3BD49"/>
<path transform="translate(1961,625)" d="m0 0 3 4 7 17-1 3-6-12-4-9z" fill="#EEB43F"/>
<path transform="translate(781,623)" d="m0 0h2l4 10-1 3v-2l-5-2-2-6z" fill="#FCC347"/>
<path transform="translate(1839,993)" d="m0 0h2l-2 4-7 6-6 4-2-1 11-10z" fill="#F3BF4E"/>
<path transform="translate(1791,515)" d="m0 0 6 1 9 6 3 5-4-2-14-9z" fill="#F9D064"/>
<path transform="translate(805,199)" d="m0 0 1 4-4 11-2-1 1-9 3-1z" fill="#FCC449"/>
<path transform="translate(1031,1578)" d="m0 0 6 4 8 7 1 3h-2v-2l-4-2-8-7z" fill="#FD796F"/>
<path transform="translate(1397,1115)" d="m0 0 10 10 7 6v2l-4-2-11-11z" fill="#F0BD4D"/>
<path transform="translate(1466,1016)" d="m0 0v3l-3 3h-2l-2 4-6 5v-3l9-9h2v-2z" fill="#F8CD63"/>
<path transform="translate(1821,1008)" d="m0 0h2v2h-2v2l-10 7-3-1z" fill="#F2BD4F"/>
<path transform="translate(587,492)" d="m0 0 3 1-3 8-4 4v-3z" fill="#FCC64C"/>
<path transform="translate(1940,586)" d="m0 0 4 4 5 9-1 2-7-9z" fill="#FBD56C"/>
<path transform="translate(768,173)" d="m0 0 5 4 1 3-1 3h-2v-2h-2l-2-4-2-1z" fill="#EFAF33"/>
<path transform="translate(1844,483)" d="m0 0 5 2 9 7-1 3-13-11z" fill="#F4C04D"/>
<path transform="translate(1933,577)" d="m0 0 4 2 3 5 1 6-3-3-5-8z" fill="#F2BB47"/>
<path transform="translate(560,534)" d="m0 0 2 2h-2l-1 5-7 2 6-7z" fill="#FCC54B"/>
</svg>
